<svg width="384" height="320" viewBox="0 0 384 320" fill="none" xmlns="http://www.w3.org/2000/svg">
<rect x="208" width="176" height="320" rx="24" fill="#F2F8FF"/>
<g clip-path="url(#clip0_1_692)">
<path d="M23.962 261.556C37.1958 261.556 47.9239 260.733 47.9239 259.717C47.9239 258.701 37.1958 257.878 23.962 257.878C10.7281 257.878 0 258.701 0 259.717C0 260.733 10.7281 261.556 23.962 261.556Z" fill="#E4E9F2"/>
<path d="M75.6514 265C88.8853 265 99.6134 264.177 99.6134 263.161C99.6134 262.146 88.8853 261.322 75.6514 261.322C62.4176 261.322 51.6895 262.146 51.6895 263.161C51.6895 264.177 62.4176 265 75.6514 265Z" fill="#E4E9F2"/>
<path d="M257.856 55H136.942C136.237 55.0009 135.561 55.2831 135.062 55.7847C134.564 56.2863 134.283 56.9664 134.282 57.6758V261.392C134.282 262.102 134.563 262.782 135.061 263.284C135.56 263.786 136.236 264.068 136.942 264.068H257.856C258.489 264.068 259.102 263.841 259.583 263.427C260.064 263.013 260.382 262.439 260.48 261.809C260.504 261.672 260.516 261.532 260.515 261.392V57.6758C260.514 56.9664 260.234 56.2863 259.735 55.7847C259.237 55.2831 258.561 55.0009 257.856 55V55ZM259.451 261.392C259.451 261.818 259.283 262.226 258.984 262.527C258.685 262.828 258.279 262.998 257.856 262.998H136.942C136.518 262.998 136.113 262.828 135.813 262.527C135.514 262.226 135.346 261.818 135.346 261.392V57.6758C135.347 57.2502 135.515 56.8422 135.814 56.5413C136.113 56.2403 136.519 56.071 136.942 56.0703H257.856C258.279 56.071 258.684 56.2403 258.983 56.5413C259.282 56.8422 259.451 57.2502 259.451 57.6758V261.392Z" fill="#E4E9F2"/>
<path d="M146.516 70.0271C146.234 70.0274 145.963 70.1403 145.764 70.3409C145.565 70.5416 145.452 70.8137 145.452 71.0974V115.337C145.452 115.621 145.565 115.893 145.764 116.094C145.963 116.294 146.234 116.407 146.516 116.407H248.282C248.564 116.407 248.835 116.294 249.034 116.094C249.234 115.893 249.346 115.621 249.346 115.337V71.0974C249.346 70.8136 249.234 70.5416 249.034 70.3409C248.835 70.1403 248.564 70.0274 248.282 70.0271L146.516 70.0271Z" fill="#E4E9F2"/>
<path d="M104.009 104.642C103.737 104.642 103.476 104.751 103.283 104.945C103.091 105.138 102.982 105.401 102.982 105.675V148.383C102.982 148.657 103.091 148.92 103.283 149.114C103.476 149.307 103.737 149.416 104.009 149.417H202.253C202.525 149.416 202.786 149.307 202.979 149.114C203.171 148.92 203.28 148.657 203.28 148.383V105.675C203.28 105.401 203.171 105.138 202.979 104.945C202.786 104.751 202.525 104.642 202.253 104.642H104.009Z" fill="#0095FF"/>
<path d="M54.0028 203.842C54.1321 207.041 52.1013 209.876 50.1999 212.424C49.3328 213.618 41.2746 221.707 38.8408 225.242C38.2513 226.099 23.7815 242.904 23.0399 244.462C22.8655 244.831 22.7218 245.213 22.6102 245.606C22.1767 247.098 22.1577 248.705 22.1957 250.297V251.41C22.2718 253.84 22.382 256.281 22.9563 258.634C23.0399 258.979 23.135 259.327 23.1844 259.675C23.0309 259.574 22.8859 259.46 22.7509 259.335L14.8866 253.461L14.3961 253.094C13.8941 251.632 13.4187 250.155 12.8825 248.713C12.5631 247.856 12.9053 246.876 13.4682 246.161C14.0779 245.483 14.7502 244.866 15.4761 244.316C16.0333 243.736 16.5302 243.1 16.9592 242.419C22.3859 234.471 37.6695 205.954 38.7837 200.215C40.2526 199.939 41.7576 199.92 43.2331 200.157L51.0784 201.206C51.9264 201.321 52.8543 201.477 53.4057 202.132C53.7823 202.622 53.9916 203.222 54.0028 203.842Z" fill="#EFB7B9"/>
<path d="M87.4909 210.362C87.3237 211.555 86.9049 212.698 86.2625 213.714C85.4563 214.95 76.1964 238.914 73.3176 248.808C72.789 250.626 73.0666 252.382 73.0096 252.991C72.964 253.496 72.9221 254.001 72.8841 254.502C72.8308 255.126 72.789 255.749 72.7434 256.369C72.6255 258.011 72.5228 259.736 73.2111 261.229C73.4812 261.818 73.8881 262.327 74.0668 262.916C73.7985 262.777 73.5503 262.602 73.3291 262.396L65.4647 256.522C64.8235 254.694 64.3288 252.817 63.9854 250.909C63.7877 249.826 63.6926 248.583 64.3657 247.752C64.4044 247.701 64.4463 247.653 64.4912 247.607C64.7107 247.4 64.9562 247.222 65.2214 247.079C65.4646 246.945 65.6983 246.794 65.9211 246.627C66.0882 246.496 66.2388 246.344 66.3698 246.176C67.0163 245.372 67.2483 244.244 67.4422 243.184C68.2028 238.845 74.6448 212.222 74.5231 211.563C74.39 210.917 70.7317 204.714 68.2218 203.337C70.826 201.142 73.7964 199.43 76.995 198.279C77.5587 198.014 78.1825 197.907 78.8013 197.969C79.1325 198.042 79.4488 198.171 79.7369 198.351C81.4595 199.323 82.7791 200.854 84.0417 202.384C85.9241 204.688 87.8065 207.397 87.4909 210.362Z" fill="#EFB7B9"/>
<path d="M84.0592 201.144C83.8157 203.458 77.3539 205.505 69.1829 206.779C67.0727 207.108 61.8879 194.258 59.6274 194.475C56.9091 194.736 57.0988 208.038 54.4105 208.109C45.2585 208.353 39.3444 207.409 37.4324 204.679C36.3981 204.427 35.1507 203.83 35.2002 202.766C35.2344 202.158 35.7135 201.618 35.7097 201.021C35.7097 199.98 38.7102 188.586 40.4785 183.179C40.9196 181.836 41.2391 180.459 41.7373 179.131C43.8897 173.147 44.8138 168.555 48.7459 163.573C49.3476 162.874 49.8423 162.089 50.2138 161.243C50.5513 160.228 50.7272 159.165 50.7348 158.094L50.9516 154.348C56.7814 154.073 62.4438 154.184 68.1481 155.423C68.4576 155.414 68.758 155.529 68.9834 155.743C69.2087 155.956 69.3404 156.251 69.3496 156.563L69.3498 156.571C69.5704 157.941 69.725 159.317 69.8137 160.7C69.8164 161.005 69.8599 161.309 69.943 161.603C70.0927 161.974 70.3007 162.319 70.5591 162.624C73.86 166.979 75.8831 172.19 77.4803 177.409C79.0775 182.628 80.3476 187.993 82.3555 193.097C83.0477 194.857 83.9528 196.835 84.1353 198.722C84.8578 199.261 84.6981 200.482 84.0592 201.144Z" fill="#2E3A59"/>
<path d="M89.5996 138.4C90.6036 137.547 91.6075 136.69 92.5278 135.749C93.8264 134.364 95.026 132.888 96.1177 131.333C97.2814 129.737 98.4375 128.104 99.16 126.259C99.9776 124.147 100.229 121.744 101.651 119.992C101.812 119.764 102.035 119.589 102.294 119.487C103.104 119.23 103.708 120.252 103.864 121.098C104.625 125.238 102.811 129.37 101.046 133.189C100.464 134.448 99.8559 135.741 98.8481 136.694C98.2952 137.169 97.7176 137.615 97.1178 138.029C96.2269 138.758 95.4069 139.57 94.6688 140.455C93.4012 141.904 92.1957 143.405 91.0523 144.958C89.6338 146.871 88.3028 148.876 86.622 150.564C84.9411 152.251 82.8381 153.625 80.4842 153.958C81.1573 153.866 80.9367 149.89 80.8644 149.389C80.7618 148.662 80.2674 147.805 80.2522 147.093C80.2332 146.221 80.5868 146.095 81.3018 145.483L89.5996 138.4Z" fill="#EFB7B9"/>
<path d="M61.3748 113.361C61.3748 113.361 59.0931 124.84 56.4311 126.753C53.7691 128.666 70.882 130.962 70.882 130.962C70.882 130.962 71.2622 121.779 75.8257 117.57C80.3891 113.361 61.3748 113.361 61.3748 113.361Z" fill="#EFB7B9"/>
<path d="M76.708 158.944C77.2722 159.121 77.8629 159.199 78.4535 159.173C80.4501 159.151 82.4178 158.69 84.2187 157.822C84.3874 157.757 84.5366 157.649 84.6522 157.509C84.7194 157.362 84.7558 157.203 84.759 157.042C84.7623 156.881 84.7324 156.72 84.6712 156.571C83.5988 152.209 85.6675 147.262 83.614 143.275C81.3817 144.006 78.9327 144.805 76.7004 145.517C76.3581 145.657 75.9894 145.72 75.6204 145.701C75.1782 145.608 74.7732 145.386 74.4567 145.062C72.0381 142.957 70.5132 140.026 69.1327 137.13C67.7523 134.233 66.3985 131.245 64.2233 128.888C62.0481 126.531 60.0135 125.284 56.8343 125.624C55.7058 125.78 54.6698 126.336 53.9137 127.193C52.1188 129.137 51.7613 132.095 52.3926 134.673C53.0239 137.252 54.4728 139.537 55.9787 141.714C57.9409 144.553 60.0515 147.35 62.7782 149.458C64.2532 150.533 65.7841 151.528 67.3644 152.439" fill="#E4E9F2"/>
<path d="M70.3119 121.97C76.6126 121.97 81.7204 116.831 81.7204 110.491C81.7204 104.152 76.6126 99.0126 70.3119 99.0126C64.0111 99.0126 58.9033 104.152 58.9033 110.491C58.9033 116.831 64.0111 121.97 70.3119 121.97Z" fill="#EFB7B9"/>
<path d="M74.8752 143.527C71.4456 147.597 70.7207 152.795 70.019 157.926C66.5736 156.751 62.7555 158.722 59.1884 158.002C57.3969 157.402 55.5015 157.181 53.621 157.352C52.3015 157.225 50.9933 156.391 49.7346 156.816C47.642 158.15 49.6798 149.888 49.5554 147.487C48.4587 106.986 81.1085 126.689 74.8752 143.527Z" fill="#E4E9F2"/>
<path d="M94.1631 139.931C95.167 139.078 96.171 138.22 97.0913 137.279C98.3899 135.894 99.5895 134.419 100.681 132.864C101.845 131.268 103.001 129.634 103.723 127.79C104.541 125.678 104.792 123.275 106.214 121.523C106.375 121.295 106.598 121.119 106.857 121.017C107.667 120.761 108.272 121.783 108.428 122.628C109.188 126.768 107.374 130.901 105.61 134.719C105.028 135.978 104.419 137.271 103.412 138.224C102.859 138.7 102.281 139.145 101.681 139.56C100.79 140.288 99.9704 141.101 99.2323 141.985C97.9647 143.434 96.7592 144.936 95.6158 146.489C94.1973 148.402 92.8663 150.407 91.1854 152.094C89.5046 153.782 87.4016 155.156 85.0476 155.488C85.7207 155.397 85.5002 151.421 85.4279 150.92C85.3252 150.193 84.8309 149.336 84.8157 148.624C84.7967 147.752 85.1503 147.625 85.8653 147.013L94.1631 139.931Z" fill="#EFB7B9"/>
<path opacity="0.1" d="M73.7345 143.91L73.7079 143.96C73.05 145.188 72.0651 146.221 71.3882 147.446C70.6276 148.831 70.2739 150.411 69.9697 151.968C69.7593 153.014 69.5653 154.061 69.3879 155.11C68.0223 154.322 66.7019 153.457 65.4329 152.519C62.7063 150.411 60.5957 147.614 58.6334 144.771C57.1123 142.594 55.6672 140.31 55.0473 137.734C54.4275 135.159 54.7887 132.198 56.5685 130.254C57.3244 129.396 58.3602 128.838 59.4891 128.681C62.6682 128.341 64.6761 129.577 66.8514 131.93C69.0266 134.283 70.3728 137.287 71.7608 140.172C72.3769 141.423 73.0082 142.705 73.7345 143.91Z" fill="#222B45"/>
<path d="M61.3978 127.155C60.2693 127.31 59.2333 127.866 58.4772 128.724C56.6823 130.667 56.3248 133.625 56.9561 136.204C57.5873 138.783 59.0362 141.067 60.5422 143.244C62.5044 146.083 64.615 148.88 67.3417 150.989C68.8167 152.063 70.3476 153.058 71.9279 153.969C74.5538 155.597 77.0774 155.09 79.4842 157.03C80.0118 157.511 80.616 157.899 81.2715 158.178C81.8357 158.356 82.4263 158.434 83.017 158.408C85.0136 158.386 86.9813 157.16 88.7821 156.292C88.9509 156.226 89.1001 156.118 89.2157 155.978C89.2829 155.832 89.3192 155.673 89.3225 155.511C89.3258 155.35 89.2959 155.19 89.2347 155.041C88.1623 150.679 90.231 148.792 88.1775 144.805C85.9452 145.536 83.4962 146.336 81.2639 147.047C80.9216 147.187 80.5529 147.25 80.1839 147.231C79.7417 147.139 79.3367 146.916 79.0202 146.592C76.6016 144.488 75.0767 141.557 73.6962 138.66C72.3158 135.764 70.962 132.776 68.7867 130.419C66.6115 128.062 64.577 126.814 61.3978 127.155Z" fill="#E4E9F2"/>
<path d="M77.284 263.054C76.7755 263.574 76.1144 263.915 75.3981 264.028C74.6818 264.141 73.9484 264.02 73.3062 263.681C73.0379 263.542 72.7897 263.367 72.5685 263.161L64.7041 257.288L61.5858 254.957C61.2578 254.65 60.9953 254.28 60.8143 253.867C60.6333 253.455 60.5375 253.01 60.5329 252.559C60.5283 252.109 60.6149 251.662 60.7874 251.246C60.9599 250.83 61.2147 250.454 61.5364 250.14L63.6051 248.518L64.4608 247.844L65.6092 246.941L66.6132 246.153L73.0552 249.788L73.1655 250.002L78.0408 259.461C78.2685 260.07 78.3182 260.732 78.1842 261.369C78.0501 262.005 77.7377 262.59 77.284 263.054Z" fill="#2E3A59"/>
<path d="M26.7059 259.993C26.1974 260.513 25.5362 260.854 24.82 260.967C24.1037 261.08 23.3703 260.959 22.7281 260.62C22.6254 260.567 22.5227 260.505 22.4238 260.44C22.2703 260.339 22.1253 260.225 21.9903 260.1L14.126 254.226L13.6355 253.859L11.0077 251.896C10.6797 251.589 10.4172 251.219 10.2361 250.806C10.0551 250.394 9.95939 249.949 9.95477 249.498C9.95014 249.048 10.0367 248.601 10.2092 248.185C10.3818 247.769 10.6366 247.393 10.9583 247.079L13.027 245.457L13.8826 244.783L15.0311 243.88L16.0351 243.092L16.1986 243.184L21.8496 246.371L22.4771 246.727L22.5874 246.941L27.4626 256.4C27.6904 257.009 27.7401 257.671 27.606 258.308C27.4719 258.944 27.1596 259.529 26.7059 259.993Z" fill="#2E3A59"/>
<path d="M81.0534 100.706C76.6359 95.6702 71.6548 93.2617 65.6827 95.4731C56.1007 92.2372 43.5052 114.476 51.261 122.541L64.3958 123.643L68.4178 116.357L66.9946 123.904L77.5009 124.959C72.1412 116.575 73.8604 108.515 81.0534 100.706Z" fill="#2E3A59"/>
<path d="M130.536 137.059C136.042 137.059 140.505 132.568 140.505 127.029C140.505 121.49 136.042 116.999 130.536 116.999C125.031 116.999 120.568 121.49 120.568 127.029C120.568 132.568 125.031 137.059 130.536 137.059Z" fill="white"/>
<path d="M153.035 125.695C152.729 125.7 152.437 125.825 152.223 126.045C152.008 126.264 151.888 126.56 151.888 126.867C151.888 127.175 152.008 127.47 152.223 127.69C152.437 127.909 152.729 128.035 153.035 128.04H184.509C184.818 128.045 185.117 127.926 185.339 127.71C185.561 127.494 185.689 127.198 185.694 126.887C185.699 126.576 185.581 126.275 185.366 126.052C185.151 125.828 184.856 125.7 184.547 125.695C184.535 125.694 184.522 125.694 184.509 125.695H153.035Z" fill="white"/>
<path d="M153.035 118.9C152.729 118.905 152.437 119.031 152.223 119.25C152.008 119.47 151.888 119.765 151.888 120.073C151.888 120.381 152.008 120.676 152.223 120.895C152.437 121.115 152.729 121.241 153.035 121.246H168.752C169.061 121.25 169.359 121.132 169.581 120.915C169.803 120.699 169.931 120.403 169.936 120.092C169.941 119.781 169.823 119.481 169.608 119.258C169.394 119.034 169.099 118.906 168.79 118.9C168.778 118.9 168.765 118.9 168.752 118.9H153.035Z" fill="white"/>
<path d="M153.035 132.813C152.729 132.818 152.437 132.944 152.223 133.163C152.008 133.382 151.888 133.678 151.888 133.985C151.888 134.293 152.008 134.588 152.223 134.808C152.437 135.027 152.729 135.153 153.035 135.158H184.509C184.662 135.161 184.814 135.133 184.957 135.076C185.099 135.02 185.229 134.936 185.339 134.829C185.449 134.721 185.537 134.594 185.598 134.452C185.659 134.311 185.692 134.159 185.695 134.005C185.697 133.851 185.669 133.697 185.613 133.554C185.557 133.411 185.473 133.28 185.366 133.169C185.26 133.059 185.133 132.97 184.992 132.909C184.852 132.848 184.7 132.815 184.547 132.813C184.534 132.812 184.522 132.812 184.509 132.813H153.035Z" fill="white"/>
<path d="M162.577 165.999C163.948 165.999 165.059 164.881 165.059 163.501C165.059 162.122 163.948 161.004 162.577 161.004C161.206 161.004 160.095 162.122 160.095 163.501C160.095 164.881 161.206 165.999 162.577 165.999Z" fill="#E4E9F2"/>
<path d="M172.806 162.208C172.469 162.214 172.147 162.353 171.911 162.595C171.674 162.836 171.542 163.162 171.542 163.501C171.542 163.841 171.674 164.166 171.911 164.408C172.147 164.65 172.469 164.789 172.806 164.794H233.397C233.737 164.799 234.064 164.667 234.308 164.429C234.552 164.19 234.692 163.864 234.698 163.522C234.703 163.18 234.574 162.85 234.338 162.604C234.102 162.358 233.779 162.215 233.439 162.208C233.425 162.208 233.411 162.208 233.397 162.208H172.806Z" fill="#E4E9F2"/>
<path d="M162.577 178.129C163.948 178.129 165.059 177.011 165.059 175.631C165.059 174.252 163.948 173.134 162.577 173.134C161.206 173.134 160.095 174.252 160.095 175.631C160.095 177.011 161.206 178.129 162.577 178.129Z" fill="#E4E9F2"/>
<path d="M172.806 174.338C172.469 174.344 172.147 174.483 171.911 174.725C171.674 174.966 171.542 175.292 171.542 175.631C171.542 175.971 171.674 176.296 171.911 176.538C172.147 176.78 172.469 176.919 172.806 176.924H233.397C233.737 176.929 234.065 176.797 234.309 176.559C234.552 176.32 234.692 175.995 234.698 175.652C234.704 175.31 234.574 174.98 234.338 174.734C234.102 174.487 233.779 174.345 233.439 174.338C233.425 174.338 233.411 174.338 233.397 174.338H172.806Z" fill="#E4E9F2"/>
<path d="M162.577 190.259C163.948 190.259 165.059 189.141 165.059 187.762C165.059 186.382 163.948 185.264 162.577 185.264C161.206 185.264 160.095 186.382 160.095 187.762C160.095 189.141 161.206 190.259 162.577 190.259Z" fill="#E4E9F2"/>
<path d="M172.806 186.469C172.469 186.474 172.147 186.613 171.911 186.855C171.674 187.097 171.542 187.422 171.542 187.762C171.542 188.101 171.674 188.427 171.911 188.668C172.147 188.91 172.469 189.049 172.806 189.055H233.397C233.737 189.059 234.065 188.928 234.309 188.689C234.552 188.451 234.692 188.125 234.698 187.783C234.704 187.441 234.574 187.11 234.338 186.864C234.102 186.618 233.779 186.476 233.439 186.469C233.425 186.468 233.411 186.468 233.397 186.469H172.806Z" fill="#E4E9F2"/>
<path d="M162.577 202.389C163.948 202.389 165.059 201.271 165.059 199.892C165.059 198.513 163.948 197.395 162.577 197.395C161.206 197.395 160.095 198.513 160.095 199.892C160.095 201.271 161.206 202.389 162.577 202.389Z" fill="#E4E9F2"/>
<path d="M172.806 198.599C172.469 198.605 172.147 198.743 171.911 198.985C171.674 199.227 171.542 199.553 171.542 199.892C171.542 200.231 171.674 200.557 171.911 200.799C172.147 201.041 172.469 201.179 172.806 201.185H233.397C233.566 201.189 233.734 201.158 233.892 201.096C234.049 201.034 234.193 200.941 234.315 200.823C234.437 200.705 234.535 200.564 234.602 200.408C234.67 200.252 234.706 200.084 234.709 199.913C234.711 199.743 234.681 199.574 234.618 199.415C234.556 199.257 234.463 199.113 234.345 198.991C234.227 198.869 234.086 198.771 233.931 198.704C233.775 198.637 233.608 198.601 233.439 198.599C233.425 198.599 233.411 198.599 233.397 198.599H172.806Z" fill="#E4E9F2"/>
<path d="M162.577 214.52C163.948 214.52 165.059 213.401 165.059 212.022C165.059 210.643 163.948 209.525 162.577 209.525C161.206 209.525 160.095 210.643 160.095 212.022C160.095 213.401 161.206 214.52 162.577 214.52Z" fill="#E4E9F2"/>
<path d="M172.806 210.729C172.469 210.735 172.147 210.873 171.911 211.115C171.674 211.357 171.542 211.683 171.542 212.022C171.542 212.361 171.674 212.687 171.911 212.929C172.147 213.171 172.469 213.309 172.806 213.315H233.397C233.737 213.319 234.064 213.188 234.308 212.949C234.552 212.711 234.692 212.385 234.698 212.043C234.703 211.701 234.574 211.371 234.338 211.125C234.102 210.878 233.779 210.736 233.439 210.729C233.425 210.729 233.411 210.729 233.397 210.729H172.806Z" fill="#E4E9F2"/>
<path d="M162.577 226.65C163.948 226.65 165.059 225.532 165.059 224.152C165.059 222.773 163.948 221.655 162.577 221.655C161.206 221.655 160.095 222.773 160.095 224.152C160.095 225.532 161.206 226.65 162.577 226.65Z" fill="#E4E9F2"/>
<path d="M172.806 222.859C172.469 222.865 172.147 223.004 171.911 223.245C171.674 223.487 171.542 223.813 171.542 224.152C171.542 224.491 171.674 224.817 171.911 225.059C172.147 225.301 172.469 225.44 172.806 225.445H233.397C233.737 225.449 234.064 225.318 234.308 225.08C234.552 224.841 234.692 224.515 234.698 224.173C234.703 223.831 234.574 223.501 234.338 223.255C234.102 223.008 233.779 222.866 233.439 222.859C233.425 222.859 233.411 222.859 233.397 222.859H172.806Z" fill="#E4E9F2"/>
<path d="M162.577 238.78C163.948 238.78 165.059 237.662 165.059 236.283C165.059 234.903 163.948 233.785 162.577 233.785C161.206 233.785 160.095 234.903 160.095 236.283C160.095 237.662 161.206 238.78 162.577 238.78Z" fill="#E4E9F2"/>
<path d="M172.806 234.989C172.469 234.995 172.147 235.134 171.911 235.376C171.674 235.618 171.542 235.943 171.542 236.282C171.542 236.622 171.674 236.947 171.911 237.189C172.147 237.431 172.469 237.57 172.806 237.576H233.397C233.737 237.58 234.065 237.448 234.309 237.21C234.552 236.972 234.692 236.646 234.698 236.304C234.704 235.961 234.574 235.631 234.338 235.385C234.102 235.138 233.779 234.996 233.439 234.989C233.425 234.989 233.411 234.989 233.397 234.989H172.806Z" fill="#E4E9F2"/>
<path d="M280 218.469C279.947 219.785 278.624 246.961 260.48 261.809C259.721 262.43 258.933 263.028 258.115 263.604L257.498 262.997H257.856C258.279 262.997 258.685 262.828 258.984 262.527C259.284 262.226 259.452 261.818 259.452 261.392V207.826C259.831 205.771 260.189 203.752 260.516 201.786C262.285 191.101 263.104 182.075 261.778 178.325C262.352 179.773 273.884 209.4 267.622 239.586C273.823 231.041 279.709 222.072 280 218.469Z" fill="#E4E9F2"/>
</g>
<defs>
<clipPath id="clip0_1_692">
<rect width="280" height="210" fill="white" transform="translate(0 55)"/>
</clipPath>
</defs>
</svg>
